<?xml version="1.0" standalone="no"?>
<!DOCTYPE svg PUBLIC "-//W3C//DTD SVG 1.1//EN" "http://www.w3.org/Graphics/SVG/1.1/DTD/svg11.dtd" >
<svg xmlns="http://www.w3.org/2000/svg">
<metadata></metadata>
<defs>
<font id="brokman_thinregular" horiz-adv-x="1128" >
<font-face units-per-em="2048" ascent="1536" descent="-512" />
<missing-glyph horiz-adv-x="561" />
<glyph horiz-adv-x="0" />
<glyph horiz-adv-x="682" />
<glyph unicode=" "  horiz-adv-x="561" />
<glyph unicode="&#x09;" horiz-adv-x="561" />
<glyph unicode="&#xa0;" horiz-adv-x="561" />
<glyph unicode="!" horiz-adv-x="397" d="M125 0v211h147v-211h-147zM129 365v1069h139v-1069h-139z" />
<glyph unicode="&#x22;" horiz-adv-x="649" d="M123 1022v412h141v-412h-141zM387 1022v412h139v-412h-139z" />
<glyph unicode="#" horiz-adv-x="1232" d="M55 383v121h244l84 377h-303v118h330l77 353h129l-79 -353h342l77 353h127l-77 -353h208v-118h-235l-84 -377h295v-121h-322l-86 -383h-127l86 383h-342l-86 -383h-127l86 383h-217zM426 504h342l84 377h-342z" />
<glyph unicode="$" horiz-adv-x="1116" d="M100 43l35 137q218 -74 389 -74q346 0 346 238q0 36 -9.5 66.5t-22.5 52.5t-41.5 44t-50.5 35.5t-66.5 31.5t-72.5 28t-85 29q-4 1 -6 2q-58 21 -98.5 37t-85.5 38t-74.5 43.5t-58 50t-44.5 61t-26 73.5t-10 90q0 76 21.5 137.5t67.5 111t124 79t184 35.5v200h131v-200 q187 -11 311 -68l-38 -137q-67 32 -162 48.5t-176 16.5q-166 0 -241 -62t-75 -165q0 -41 13 -71.5t33.5 -53t66.5 -46t90.5 -41t128.5 -46.5q74 -27 123.5 -48t101.5 -49t84 -57.5t58.5 -67.5t38.5 -85.5t12 -106.5q0 -89 -28.5 -159t-80.5 -114.5t-116.5 -70.5t-143.5 -37 v-200h-131v192q-197 3 -416 82z" />
<glyph unicode="%" horiz-adv-x="1587" d="M111 893v227q0 119 79.5 187.5t200.5 68.5q119 0 198 -68.5t79 -187.5v-227q0 -122 -79.5 -194t-197.5 -72q-122 0 -201 71.5t-79 194.5zM217 907q0 -79 49 -124.5t125 -45.5q74 0 121 45t47 125v199q0 77 -47 118.5t-121 41.5q-77 0 -125.5 -41.5t-48.5 -118.5v-199z M311 0l865 1434h114l-866 -1434h-113zM920 240v229q0 119 79.5 187.5t202.5 68.5q118 0 197.5 -68.5t79.5 -187.5v-229q0 -122 -79.5 -193.5t-197.5 -71.5q-122 0 -202 71t-80 194zM1028 254q0 -78 48.5 -123t125.5 -45q72 0 119 45t47 123v199q0 77 -46.5 119t-119.5 42 q-78 0 -126 -42t-48 -119v-199z" />
<glyph unicode="&#x26;" horiz-adv-x="1249" d="M106 328v73q0 110 47.5 172.5t151.5 126.5l101 60l-89 114q-46 67 -69 116.5t-23 103.5q0 75 31 134t83 93.5t115 52t132 17.5q54 0 103.5 -10t95.5 -33t79.5 -56.5t53.5 -84.5t20 -113q0 -56 -15 -101t-49 -83.5t-73 -69t-103 -70.5l-94 -53l344 -463q56 88 56 203v143 h139v-139q0 -194 -109 -322l133 -178l-100 -84l-133 176q-142 -92 -338 -92q-99 0 -185 22t-155.5 65t-109.5 115t-40 165zM254 340q0 -125 97 -187.5t247 -62.5q149 0 256 70l-367 489l-98 -57q-65 -36 -100 -81.5t-35 -123.5v-47zM367 1092q0 -64 57 -131l98 -134l113 68 q57 34 87.5 57.5t53.5 61t23 84.5q0 82 -60.5 124t-150.5 42q-96 0 -158.5 -44t-62.5 -128z" />
<glyph unicode="'" horiz-adv-x="387" d="M123 1022v412h141v-412h-141z" />
<glyph unicode="(" horiz-adv-x="548" d="M121 532q0 489 227 871l111 -66q-195 -350 -195 -802q0 -431 195 -781l-111 -63q-227 369 -227 841z" />
<glyph unicode=")" horiz-adv-x="548" d="M90 -246q197 353 197 781q0 448 -197 802l111 66q229 -385 229 -871q0 -469 -229 -841z" />
<glyph unicode="*" horiz-adv-x="903" d="M88 1126l33 115l276 -88v281h111v-281l272 86l35 -113l-266 -84l168 -227l-90 -70l-176 238l-175 -238l-90 70l168 227z" />
<glyph unicode="+" d="M131 571v129h365v379h139v-379h362v-129h-362v-378h-139v378h-365z" />
<glyph unicode="," horiz-adv-x="495" d="M109 -104q67 31 67 108v244h143v-252q0 -99 -52 -157t-128 -66z" />
<glyph unicode="-" horiz-adv-x="858" d="M150 530v129h559v-129h-559z" />
<glyph unicode="." horiz-adv-x="495" d="M176 0v248h143v-248h-143z" />
<glyph unicode="/" horiz-adv-x="890" d="M51 0l637 1434h148l-637 -1434h-148z" />
<glyph unicode="0" horiz-adv-x="1243" d="M143 414v538q0 136 65.5 237.5t173.5 151.5t243 50q132 0 238.5 -50t171.5 -151.5t65 -237.5v-538q0 -139 -64.5 -243t-171.5 -157t-239 -53q-207 0 -344.5 122.5t-137.5 330.5zM283 424q0 -154 95.5 -244t246.5 -90q146 0 241 90.5t95 243.5v518q0 152 -94.5 236 t-241.5 84q-153 0 -247.5 -84t-94.5 -236v-518z" />
<glyph unicode="1" horiz-adv-x="677" d="M53 1296l357 56h94v-1352h-139v1200l-289 -41z" />
<glyph unicode="2" horiz-adv-x="1079" d="M100 0v135q0 95 16 168t45.5 129t84 104.5t119.5 88t163 86.5q136 63 177 91q92 63 107 159q3 22 3 47q0 116 -77.5 182.5t-225.5 66.5q-166 0 -365 -63l-30 129q84 29 194 48.5t207 19.5q212 0 324 -99t112 -295q0 -59 -10.5 -105.5t-32.5 -83t-49.5 -65t-69.5 -54.5 t-84 -47.5t-100 -49.5q-20 -9 -30 -14q-51 -24 -81.5 -39.5t-68 -37t-58.5 -38.5t-45 -41t-36 -48.5t-23.5 -57t-15.5 -70t-4 -84.5v-33h708v-129h-854z" />
<glyph unicode="3" horiz-adv-x="1130" d="M94 27l25 127q232 -60 387 -60q63 0 111 6t93 24t74 48.5t46.5 81t17.5 119.5q0 53 -11.5 97.5t-37.5 83.5t-74 61t-115 22h-401v129h409q104 0 154.5 66.5t50.5 181.5q0 127 -79.5 185t-247.5 58q-156 0 -361 -61l-24 127q129 35 216.5 51.5t176.5 16.5 q224 0 341.5 -84.5t117.5 -278.5q0 -234 -144 -321q168 -94 168 -345q0 -100 -25.5 -173.5t-66.5 -116.5t-105.5 -68.5t-129.5 -34t-150 -8.5q-101 0 -192 15t-224 51z" />
<glyph unicode="4" horiz-adv-x="1177" d="M82 268v103l428 1034l125 -59l-391 -947h510v488h139v-488h231v-131h-231v-268h-139v268h-672z" />
<glyph unicode="5" horiz-adv-x="1091" d="M86 31l39 125q192 -66 364 -66q177 0 258.5 76.5t81.5 243.5q0 159 -80 225.5t-266 66.5q-91 0 -319 -20l24 670h703v-131h-569l-17 -400q143 10 205 10q247 0 353 -97t106 -328q0 -234 -116.5 -339.5t-369.5 -105.5q-187 0 -397 70z" />
<glyph unicode="6" horiz-adv-x="1212" d="M143 387v467q0 255 132.5 396t375.5 141q81 0 182 -21t175 -51l-37 -123q-64 27 -152.5 46.5t-159.5 19.5q-177 0 -276.5 -105.5t-99.5 -290.5v-73q208 75 383 75q88 0 163.5 -21.5t135 -63.5t93.5 -112.5t34 -162.5v-121q0 -97 -27 -172.5t-71 -122.5t-105.5 -77 t-124.5 -42t-135 -12q-225 0 -355.5 113.5t-130.5 312.5zM283 387q0 -139 93.5 -218t252.5 -79q63 0 118 15.5t103 49t76 95t28 145.5v103q0 122 -81 181.5t-216 59.5q-155 0 -374 -73v-279z" />
<glyph unicode="7" horiz-adv-x="1044" d="M37 1223v129h948v-121q-101 -80 -192 -189t-165.5 -239.5t-118.5 -285.5t-44 -308v-209h-139v209q0 150 38.5 301t105 280t147.5 237.5t174 195.5h-754z" />
<glyph unicode="8" horiz-adv-x="1247" d="M143 324v112q0 195 170 275q-153 79 -153 305q0 100 36 174.5t101 117t146 63t180 20.5q100 0 181 -20.5t145.5 -63t100 -117t35.5 -174.5q0 -227 -151 -305q85 -40 127.5 -111t42.5 -164v-112q0 -95 -38.5 -166.5t-106.5 -113.5t-152.5 -62.5t-183.5 -20.5t-183.5 20.5 t-152 62.5t-106 113.5t-38.5 166.5zM283 330q0 -117 93.5 -177.5t246.5 -60.5q155 0 248.5 60.5t93.5 177.5v92q0 99 -66 163t-172 64h-207q-107 0 -172 -63.5t-65 -163.5v-92zM299 1012q0 -120 58.5 -179t160.5 -59h211q102 0 159.5 58.5t57.5 179.5q0 125 -87 187.5 t-236 62.5q-148 0 -236 -63t-88 -187z" />
<glyph unicode="9" horiz-adv-x="1212" d="M121 844v121q0 96 27 171.5t71 122.5t105.5 77.5t125 42.5t134.5 12q226 0 356.5 -113.5t130.5 -312.5v-467q0 -255 -133.5 -396t-374.5 -141q-82 0 -181.5 21t-174.5 51l35 123q64 -27 152.5 -46.5t158.5 -19.5q178 0 278.5 105t100.5 290v74q-214 -76 -385 -76 q-87 0 -162.5 21.5t-135 64t-94 113.5t-34.5 162zM260 854q0 -122 81 -182t216 -60q149 0 375 74v279q0 138 -94 216.5t-252 78.5q-64 0 -119 -15.5t-103 -48.5t-76 -94.5t-28 -145.5v-102z" />
<glyph unicode=":" horiz-adv-x="495" d="M176 0v248h143v-248h-143zM176 776v248h143v-248h-143z" />
<glyph unicode=";" horiz-adv-x="495" d="M109 -104q67 31 67 108v244h143v-252q0 -99 -52 -157t-128 -66zM176 776v248h143v-248h-143z" />
<glyph unicode="&#x3c;" horiz-adv-x="907" d="M51 580v100l711 448v-176l-526 -323l526 -322v-176z" />
<glyph unicode="=" d="M131 367v129h866v-129h-866zM131 774v129h866v-129h-866z" />
<glyph unicode="&#x3e;" horiz-adv-x="907" d="M143 131v176l529 322l-529 323v176l711 -448v-100z" />
<glyph unicode="?" horiz-adv-x="948" d="M47 1434q198 39 383 39q215 0 331.5 -82.5t117.5 -253.5v-37q0 -96 -52 -174.5t-137 -120.5l-151 -74q-138 -71 -138 -194v-172h-139v172q0 104 56.5 188t152.5 131l154 74q53 25 83.5 71.5t30.5 104.5v33q0 104 -78 153t-233 49q-162 0 -369 -38zM258 0v211h148v-211 h-148z" />
<glyph unicode="@" horiz-adv-x="1370" d="M125 227v492q0 101 29 188t81.5 150.5t123.5 109t155.5 68t177.5 22.5q115 0 215 -34.5t175.5 -100t119 -167.5t43.5 -228v-219q0 -178 -69 -267.5t-222 -90.5h-102l-10 45q-51 -31 -119.5 -49.5t-128.5 -18.5q-117 0 -162 54.5t-45 156.5q0 67 17 109.5t56 65.5t89 31.5 t127 8.5q88 0 160 -16v55q0 79 -38.5 110t-113.5 31q-101 0 -213 -39l-29 107q130 43 248 43q271 0 271 -252v-336q60 1 96.5 23t56 77.5t19.5 151.5v219q0 130 -60 227t-159 145t-222 48q-194 0 -324 -116.5t-130 -311.5v-492q0 -126 62 -223t164 -147t226 -50 q153 0 295 89l39 -93q-155 -106 -342 -106q-114 0 -215 36.5t-177 103t-120.5 167.5t-44.5 223zM510 340q0 -102 123 -102q121 4 203 59v143q-103 15 -160 15q-84 0 -125 -23.5t-41 -91.5z" />
<glyph unicode="A" horiz-adv-x="1280" d="M66 0l532 1352h127l485 -1352h-143l-109 303h-630l-115 -303h-147zM385 449h520l-246 700z" />
<glyph unicode="B" horiz-adv-x="1267" d="M160 0v1352h563q171 0 279 -88.5t108 -243.5q0 -111 -42 -182.5t-107 -108.5q89 -38 147.5 -124.5t58.5 -221.5q0 -101 -35.5 -177t-97.5 -120t-137 -65t-162 -21h-575zM307 145h428q131 0 209 63t78 189q0 123 -71 188.5t-181 65.5h-463v-506zM307 784h455 q80 0 142.5 53t62.5 156q0 95 -67.5 154t-176.5 59h-416v-422z" />
<glyph unicode="C" horiz-adv-x="1146" d="M147 528v295q0 280 129 424t414 144q94 0 197 -18t176 -52l-41 -133q-64 29 -157 47t-177 18q-205 0 -299 -106.5t-94 -333.5v-274q0 -227 94.5 -334t298.5 -107q82 0 171.5 18t154.5 48l41 -133q-73 -34 -172.5 -52t-192.5 -18q-285 0 -414 144t-129 423z" />
<glyph unicode="D" horiz-adv-x="1331" d="M160 0v1352h493q105 0 201 -32.5t170 -92.5t118 -152t44 -203v-387q0 -147 -73.5 -259t-193 -169t-262.5 -57h-497zM307 145h350q159 0 270 98.5t111 260.5v342q0 164 -111 262t-270 98h-350v-1061z" />
<glyph unicode="E" horiz-adv-x="1177" d="M160 0v1352h856v-146h-709v-444h643v-139h-643v-478h729v-145h-876z" />
<glyph unicode="F" horiz-adv-x="1050" d="M160 0v1352h831v-146h-684v-465h619v-147h-619v-594h-147z" />
<glyph unicode="G" horiz-adv-x="1327" d="M147 524v305q0 274 151.5 418t442.5 144q120 0 233.5 -20.5t188.5 -55.5l-43 -129q-64 29 -169 48t-214 19q-211 0 -326.5 -105.5t-115.5 -326.5v-286q0 -215 113.5 -327t304.5 -112q146 0 317 35v481h-289v148h437v-715q-67 -36 -206 -59t-265 -23q-256 0 -408 150.5 t-152 410.5z" />
<glyph unicode="H" horiz-adv-x="1357" d="M160 0v1352h147v-584h744v584h147v-1352h-147v621h-744v-621h-147z" />
<glyph unicode="I" horiz-adv-x="466" d="M160 0v1352h147v-1352h-147z" />
<glyph unicode="J" horiz-adv-x="550" d="M-20 -186q47 23 74.5 38t68.5 45t63.5 58.5t40 72t17.5 93.5v1231h147v-1272q0 -62 -26.5 -120t-64 -98t-90 -77t-91.5 -57.5t-82 -38.5z" />
<glyph unicode="K" horiz-adv-x="1226" d="M160 0v1352h147v-613l613 613h182l-656 -662l723 -690h-194l-668 639v-639h-147z" />
<glyph unicode="L" horiz-adv-x="1042" d="M160 0v1352h147v-1207h686v-145h-833z" />
<glyph unicode="M" horiz-adv-x="1544" d="M143 0l50 1352h110l469 -871l469 871h111l49 -1352h-135l-39 1049l-414 -766h-80l-416 768l-41 -1051h-133z" />
<glyph unicode="N" horiz-adv-x="1337" d="M160 0v1352h98l772 -1041v1041h148v-1352h-97l-774 1040v-1040h-147z" />
<glyph unicode="O" horiz-adv-x="1359" d="M147 453v454q0 148 74.5 260t194 168t264.5 56q146 0 266 -56t194 -167.5t74 -260.5v-454q0 -149 -73.5 -262.5t-194 -171.5t-266.5 -58q-145 0 -265 58t-194 171.5t-74 262.5zM295 461q0 -110 54.5 -193t141 -124.5t189.5 -41.5q164 0 275.5 97t111.5 262v436 q0 164 -111.5 258t-275.5 94q-103 0 -189 -39.5t-141 -121.5t-55 -191v-436z" />
<glyph unicode="P" horiz-adv-x="1222" d="M160 0v1352h575q108 0 191 -33t133.5 -91t76 -132.5t25.5 -163.5q0 -188 -107 -306t-319 -118h-428v-508h-147zM307 653h428q141 0 210 78.5t69 200.5q0 117 -69.5 195.5t-209.5 78.5h-428v-553z" />
<glyph unicode="Q" horiz-adv-x="1359" d="M147 453v454q0 148 74.5 260t194 168t264.5 56q146 0 266 -56t194 -167.5t74 -260.5v-454q0 -132 -57.5 -235.5t-157.5 -168.5l211 -221l-100 -102l-256 258q-90 -23 -174 -23q-145 0 -265 58t-194 171.5t-74 262.5zM295 461q0 -110 54.5 -193t141 -124.5t189.5 -41.5 q164 0 275.5 97t111.5 262v436q0 164 -111.5 258t-275.5 94q-103 0 -189 -39.5t-141 -121.5t-55 -191v-436z" />
<glyph unicode="R" horiz-adv-x="1298" d="M160 0v1352h567q109 0 192.5 -31.5t134 -87.5t76 -127t25.5 -154q0 -97 -34.5 -177t-110.5 -137.5t-185 -74.5l359 -563h-170l-346 545h-361v-545h-147zM307 690h420q141 0 211 74.5t70 187.5q0 108 -70.5 181t-210.5 73h-420v-516z" />
<glyph unicode="S" horiz-adv-x="1116" d="M100 43l35 137q218 -74 389 -74q346 0 346 238q0 36 -9.5 66.5t-22.5 52.5t-41.5 44t-50.5 35.5t-66.5 31.5t-72.5 28t-85 29q-4 1 -6 2q-58 21 -98.5 37t-85.5 38t-74.5 43.5t-58 50t-44.5 61t-26 73.5t-10 90q0 167 108.5 266t345.5 99q98 0 205 -18t180 -52l-38 -137 q-67 32 -162 48.5t-176 16.5q-166 0 -241 -62t-75 -165q0 -41 13 -71.5t33.5 -53t66.5 -46t90.5 -41t128.5 -46.5q74 -27 123.5 -48t101.5 -49t84 -57.5t58.5 -67.5t38.5 -85.5t12 -106.5q0 -85 -26.5 -152.5t-71.5 -111t-108.5 -72.5t-132 -41t-147.5 -12q-202 0 -430 82z " />
<glyph unicode="T" horiz-adv-x="1103" d="M51 1206v146h1002v-146h-426v-1206h-148v1206h-428z" />
<glyph unicode="U" horiz-adv-x="1325" d="M143 485v867h148v-867q0 -183 94.5 -283t276.5 -100q183 0 277.5 100t94.5 283v867h148v-867q0 -248 -132.5 -383t-387.5 -135q-254 0 -386.5 135.5t-132.5 382.5z" />
<glyph unicode="V" horiz-adv-x="1226" d="M66 1352h149l383 -1131l416 1131h147l-493 -1352h-144z" />
<glyph unicode="W" horiz-adv-x="1812" d="M66 1352h143l289 -1129l348 1129h121l348 -1131l291 1131h143l-356 -1352h-146l-342 1075l-338 -1075h-145z" />
<glyph unicode="X" horiz-adv-x="1220" d="M72 0l454 702l-428 650h164l350 -533l361 533h166l-439 -664l455 -688h-166l-375 569l-376 -569h-166z" />
<glyph unicode="Y" horiz-adv-x="1103" d="M45 1352h158l348 -676l348 676h160l-434 -834v-518h-146v516z" />
<glyph unicode="Z" horiz-adv-x="1173" d="M102 0v115l752 1091h-713v146h908v-119l-748 -1088h768v-145h-967z" />
<glyph unicode="[" horiz-adv-x="604" d="M162 -334v1768h442v-129h-303v-1510h303v-129h-442z" />
<glyph unicode="\" horiz-adv-x="884" d="M49 1434h150l635 -1434h-148z" />
<glyph unicode="]" horiz-adv-x="602" d="M0 -205h301v1510h-301v129h440v-1768h-440v129z" />
<glyph unicode="^" horiz-adv-x="1087" d="M111 821l383 613h100l381 -613h-158l-272 430l-275 -430h-159z" />
<glyph unicode="_" horiz-adv-x="1110" d="M78 -113h952v-129h-952v129z" />
<glyph unicode="`" horiz-adv-x="495" d="M14 1489h176l238 -287h-143z" />
<glyph unicode="a" horiz-adv-x="1079" d="M78 279q0 178 97 253.5t314 75.5q117 0 304 -24v106q0 132 -71.5 187t-203.5 55q-68 0 -163.5 -16.5t-168.5 -47.5l-28 129q91 33 192 49.5t174 16.5q93 0 164 -18.5t127.5 -60t86.5 -115.5t30 -179v-547l37 -143h-129l-23 66q-80 -48 -189.5 -76.5t-205.5 -28.5 q-167 0 -255.5 80.5t-88.5 237.5zM217 276q0 -192 227 -192q85 0 179.5 22.5t169.5 61.5v297q-197 27 -277 27q-167 0 -233 -49t-66 -167z" />
<glyph unicode="b" horiz-adv-x="1169" d="M156 39v1395h139v-457q216 86 352 86q182 0 289.5 -112t107.5 -316v-264q0 -191 -112 -300.5t-307 -109.5q-101 0 -239.5 23.5t-229.5 54.5zM295 152q66 -27 158.5 -40.5t167.5 -13.5q94 0 159.5 42.5t95 108.5t29.5 148v211q0 152 -73.5 235t-206.5 83q-62 0 -154 -22 t-176 -56v-696z" />
<glyph unicode="c" horiz-adv-x="1003" d="M125 453v127q0 135 32 230t94.5 149.5t143.5 79t189 24.5q80 0 174 -14.5t147 -36.5l-22 -127q-54 16 -134.5 29.5t-142.5 13.5q-84 0 -144.5 -17.5t-106.5 -58.5t-68.5 -113t-22.5 -176v-102q0 -197 86 -281t256 -84q65 0 146 12.5t131 30.5l22 -127 q-55 -22 -145.5 -36.5t-175.5 -14.5q-224 0 -341.5 114t-117.5 378z" />
<glyph unicode="d" horiz-adv-x="1179" d="M125 403v224q0 204 108 320t289 116q134 0 350 -86v457h140v-1291l39 -143h-144l-22 68q-199 -107 -379 -107q-84 0 -150.5 25.5t-109 68t-70.5 100.5t-39.5 119t-11.5 129zM264 412q0 -48 7 -90.5t25 -84.5t47 -72t76 -48.5t109 -18.5h11q77 0 167 26q96 28 166 79v645 q-84 35 -177 57q-89 21 -149 21h-5q-131 0 -204 -83t-73 -235v-196z" />
<glyph unicode="e" d="M127 418v162q0 211 119.5 347t326.5 136q212 0 322.5 -130t110.5 -351v-162h-742q6 -326 344 -326q75 0 169 14.5t169 47.5l25 -129q-159 -66 -383 -66q-219 0 -340 115t-121 342zM264 551h610v39q0 152 -75 247t-226 95q-79 0 -139.5 -28.5t-97 -77.5t-54.5 -109.5 t-18 -130.5v-35z" />
<glyph unicode="f" horiz-adv-x="710" d="M66 901v129h135v19q0 231 76.5 327.5t248.5 96.5q94 0 181 -25l-23 -123q-85 16 -137 16q-114 0 -160.5 -60.5t-46.5 -225.5v-25h309v-129h-309v-901h-139v901h-135z" />
<glyph unicode="g" horiz-adv-x="1181" d="M125 403v224q0 204 107.5 320t287.5 116q150 0 367 -92l20 59h144l-37 -143v-914q0 -89 -22 -157.5t-58.5 -110.5t-90.5 -68.5t-111 -36.5t-126 -10q-92 0 -203.5 19t-189.5 51l37 121q60 -30 161 -47t181 -17q282 0 282 234v110q-195 -100 -368 -100q-84 0 -150.5 25.5 t-109 68t-70.5 100.5t-39.5 119t-11.5 129zM264 412q0 -48 7 -90.5t25 -84.5t47 -72t76 -48.5t109 -18.5q83 0 179 28t167 77v645q-89 36 -180 58q-81 20 -138 20h-15q-132 -3 -204.5 -85t-72.5 -233v-196z" />
<glyph unicode="h" horiz-adv-x="1200" d="M156 0v1434h139v-476q207 105 416 105q348 0 348 -434v-629h-139v623q0 159 -63.5 234t-178.5 75q-202 0 -383 -111v-821h-139z" />
<glyph unicode="i" horiz-adv-x="452" d="M156 0v1030h139v-1030h-139zM156 1214v207h139v-207h-139z" />
<glyph unicode="j" horiz-adv-x="471" d="M-47 -383l22 113q47 -21 88 -21q113 0 113 127v1194h139v-1202q0 -238 -213 -238q-66 0 -149 27zM176 1214v207h139v-207h-139z" />
<glyph unicode="k" horiz-adv-x="1050" d="M156 0v1434h139v-840l489 436h185l-553 -500l596 -530h-185l-532 463v-463h-139z" />
<glyph unicode="l" horiz-adv-x="452" d="M156 0v1434h139v-1434h-139z" />
<glyph unicode="m" horiz-adv-x="1761" d="M129 1030h137l21 -74q165 107 352 107q195 0 270 -123q79 56 180 89.5t195 33.5q98 0 165 -29.5t104 -88.5t53 -135t16 -181v-629h-139v623q0 73 -9.5 125t-34 96t-71 66t-115.5 22h-5q-78 0 -158 -28q-82 -29 -136 -75q21 -86 21 -200v-629h-139v623q0 73 -9 125t-33 96 t-71 66t-117 22q-81 0 -163 -29.5t-136 -75.5v-827h-139v887z" />
<glyph unicode="n" horiz-adv-x="1208" d="M129 1030h137l23 -80q213 113 430 113q350 0 350 -434v-629h-139v623q0 159 -63.5 234t-178.5 75q-202 0 -381 -109v-823h-139v887z" />
<glyph unicode="o" horiz-adv-x="1153" d="M125 322v383q0 112 62.5 194.5t163.5 123t224 40.5q124 0 225.5 -40.5t164.5 -123t63 -194.5v-383q0 -110 -62.5 -193.5t-164.5 -125.5t-226 -42q-123 0 -224.5 42t-163.5 125.5t-62 193.5zM264 330q0 -111 88 -175.5t223 -64.5q136 0 225 64.5t89 175.5v366 q0 113 -89 175.5t-225 62.5t-223.5 -62.5t-87.5 -175.5v-366z" />
<glyph unicode="p" horiz-adv-x="1179" d="M129 1030h143l21 -59q220 92 364 92q182 0 290 -112.5t108 -315.5v-250q0 -65 -11.5 -124t-39.5 -114.5t-70.5 -96t-109 -65t-150.5 -24.5q-177 0 -367 96v-426h-139v1256zM307 197q70 -46 162.5 -72.5t173.5 -26.5q62 0 110 18.5t78 48.5t49.5 72t27 84.5t7.5 90.5v196 q0 151 -72.5 234.5t-203.5 83.5q-63 0 -156.5 -22t-175.5 -56v-651z" />
<glyph unicode="q" horiz-adv-x="1181" d="M125 403v224q0 204 107.5 320t287.5 116q150 0 367 -92l20 59h144l-37 -143v-1256h-140v430q-195 -100 -368 -100q-84 0 -150.5 25.5t-109 68t-70.5 100.5t-39.5 119t-11.5 129zM264 412q0 -48 7 -90.5t25 -84.5t47 -72t76 -48.5t109 -18.5h11q77 0 167 26q96 29 168 79 v645q-86 35 -179 57q-89 21 -149 21h-5q-131 0 -204 -83t-73 -235v-196z" />
<glyph unicode="r" horiz-adv-x="813" d="M129 1030h137l27 -94q97 63 186 92t152 29q97 0 153 -15l-4 -129q-56 13 -147 13q-150 0 -326 -119v-807h-139v887z" />
<glyph unicode="s" horiz-adv-x="946" d="M74 27l28 133q121 -38 200 -52q74 -14 156 -14h11q31 0 57 2t58.5 7.5t57.5 17.5t47 29.5t34 46.5t12 67q0 45 -17 76.5t-55 53.5t-79.5 37t-110.5 36q-23 6 -35 10q-70 21 -116.5 38t-94 42.5t-74.5 55t-44 72t-17 95.5q0 56 19 103.5t62.5 89.5t126 66t198.5 24 q183 0 325 -49l-24 -127q-136 47 -303 47q-265 0 -265 -152q0 -29 11 -51t29 -39t54 -33.5t72.5 -29t98.5 -31.5q155 -50 203 -72q123 -58 158 -157q17 -47 17 -107q0 -301 -417 -301q-167 0 -383 66z" />
<glyph unicode="t" horiz-adv-x="784" d="M53 901v129h174v234h142v-234h327v-129h-327v-674q0 -71 44 -103t117 -32q106 0 183 31l16 -117q-106 -45 -242 -45q-116 0 -188 59.5t-72 182.5v698h-174z" />
<glyph unicode="u" horiz-adv-x="1165" d="M141 385v645h140v-639q0 -146 64 -222.5t181 -76.5h8q159 0 326 115v823h139v-887l37 -143h-135l-24 80q-189 -119 -383 -119q-168 0 -260.5 106.5t-92.5 317.5z" />
<glyph unicode="v" horiz-adv-x="1044" d="M49 1030h148l325 -842l326 842h145l-407 -1030h-133z" />
<glyph unicode="w" horiz-adv-x="1544" d="M49 1030h133l246 -860l285 860h121l282 -860l248 860h131l-303 -1030h-135l-285 793l-283 -793h-137z" />
<glyph unicode="x" horiz-adv-x="1081" d="M57 0l396 510l-396 520h172l312 -420l311 420h172l-397 -516l397 -514h-172l-311 414l-312 -414h-172z" />
<glyph unicode="y" horiz-adv-x="1073" d="M49 1030h148l348 -799l329 799h150q-315 -743 -366 -858q-159 -355 -254 -473q-88 -108 -185 -109q-57 0 -121 21l23 123q25 -10 63 -10q33 0 62.5 15.5t54.5 39.5t54.5 70.5t53.5 92t60 119.5z" />
<glyph unicode="z" horiz-adv-x="976" d="M80 0v111l612 790h-569v129h756v-110l-615 -791h633v-129h-817z" />
<glyph unicode="{" horiz-adv-x="710" d="M72 483v127q103 3 144.5 57t41.5 201v197q0 126 19 207.5t60.5 125t94.5 59.5t133 16q74 0 183 -23v-129q-89 25 -160 25q-70 0 -108.5 -21t-59.5 -82t-21 -174v-201q0 -137 -28.5 -209.5t-104.5 -111.5q76 -39 104.5 -110t28.5 -204v-202q0 -113 21 -174t59.5 -82 t108.5 -21q71 0 160 25v-129q-109 -23 -183 -23q-80 0 -133 16t-94.5 59.5t-60.5 125t-19 207.5v198q0 142 -42 194.5t-144 55.5z" />
<glyph unicode="|" horiz-adv-x="452" d="M156 -328v1727h139v-1727h-139z" />
<glyph unicode="}" horiz-adv-x="712" d="M-39 1323v127q105 25 184 25q64 0 109 -10t85 -36t63.5 -72t37 -118.5t13.5 -173.5v-199q0 -140 43 -193.5t145 -56.5v-124q-104 -3 -146 -57.5t-42 -201.5v-198q0 -101 -13.5 -173.5t-37 -118t-63 -71.5t-84.5 -35.5t-108 -9.5q-75 0 -184 23v129q92 -25 160 -25 q70 0 108.5 21t60 82t21.5 174v202q0 136 28.5 209.5t102.5 112.5q-75 39 -103 109.5t-28 201.5v205q0 113 -21.5 173.5t-60.5 81t-110 20.5q-75 0 -160 -23z" />
<glyph unicode="~" horiz-adv-x="1179" d="M131 522q67 145 123 204.5t141 59.5q79 0 160 -47l168 -98q56 -27 88 -27q20 0 37.5 10.5t29 22.5t26.5 41t21.5 44.5t22.5 53.5l101 -49q-47 -122 -103.5 -191t-134.5 -69q-72 0 -137 41l-170 103q-58 30 -101 30q-29 0 -54.5 -14.5t-49 -46.5t-38.5 -58t-38 -73z" />
<glyph unicode="&#xa1;" horiz-adv-x="397" d="M125 848v211h147v-211h-147zM129 -375v1069h139v-1069h-139z" />
<glyph unicode="&#xa2;" horiz-adv-x="1003" d="M125 453v127q0 237 96.5 349t278.5 130v194h133v-192q73 -3 150 -16.5t122 -32.5l-22 -127q-54 16 -134.5 29.5t-142.5 13.5q-84 0 -144.5 -17.5t-106.5 -58.5t-68.5 -113t-22.5 -176v-102q0 -197 86 -281t256 -84q65 0 146 12.5t131 30.5l22 -127q-99 -41 -272 -51v-192 h-133v196q-182 20 -278.5 135t-96.5 353z" />
<glyph unicode="&#xa3;" horiz-adv-x="1083" d="M96 647v111h111q-17 126 -17 203q0 141 63.5 240t166 144.5t233.5 45.5q129 0 301 -35l-24 -135q-131 32 -262 32q-144 0 -235 -76t-91 -210q0 -69 18 -209h441v-111h-424q26 -212 26 -268q0 -140 -88 -234h629v-145h-835v123q68 39 105.5 107.5t37.5 134.5q0 71 -31 282 h-125z" />
<glyph unicode="&#xa4;" horiz-adv-x="1210" d="M100 49l176 248q-73 85 -73 209v334q0 120 71 207l-174 247l97 64l165 -236q112 70 252 70q132 0 238 -62l160 228l94 -64l-164 -233q86 -92 86 -221v-334q0 -129 -86 -221l164 -236l-94 -63l-160 227q-108 -63 -238 -63q-143 0 -252 71l-165 -235zM340 520 q0 -105 82.5 -169t191.5 -64t192 64t83 169v305q0 106 -83 168t-192 62t-191.5 -62t-82.5 -168v-305z" />
<glyph unicode="&#xa5;" horiz-adv-x="1103" d="M45 1352h158l348 -676l39 74v4h2l307 598h160l-311 -598h251v-111h-309l-65 -125v-84h374v-112h-374v-322h-146v322h-375v112h375v82l-65 127h-310v111h252z" />
<glyph unicode="&#xa6;" horiz-adv-x="452" d="M156 -328v734h139v-734h-139zM156 666v733h139v-733h-139z" />
<glyph unicode="&#xa7;" horiz-adv-x="1024" d="M100 -203l33 131q115 -38 196 -52.5t167 -14.5q272 0 272 176q0 27 -7 48t-24.5 38t-33 28t-48.5 23.5t-53 19t-65 19.5t-68 20q-15 5 -49 15t-50.5 15t-47 16t-46.5 19t-41 21.5t-38 26t-29.5 31t-24.5 38.5t-14 45t-6 54q0 180 147 246q-131 72 -131 219q0 46 11 86.5 t39 80t72 68t115 45.5t163 17q185 0 342 -62l-41 -120q-64 25 -155.5 40t-160.5 15q-136 0 -190.5 -42t-54.5 -118q0 -33 15.5 -60t37 -44.5t62 -34.5t71.5 -26.5t84 -24.5q52 -16 82.5 -26t75.5 -28t71.5 -34.5t57.5 -42t47 -53.5t27.5 -67t11.5 -85q0 -141 -136 -209 q121 -74 121 -215q0 -309 -420 -309q-90 0 -175.5 15t-211.5 52zM262 535q0 -49 38 -84t78.5 -50.5t140.5 -45.5l9 -3q113 -35 144 -47q110 41 110 156q0 39 -16 70.5t-39 52.5t-66.5 40t-78.5 30.5t-95 27.5l-81 25q-144 -47 -144 -172z" />
<glyph unicode="&#xa8;" horiz-adv-x="720" d="M141 1262v165h144v-165h-144zM438 1262v165h142v-165h-142z" />
<glyph unicode="&#xa9;" horiz-adv-x="1511" d="M102 721q0 137 51.5 260.5t139.5 211.5t208.5 139.5t254.5 51.5t254.5 -51.5t208 -139.5t139 -211.5t51.5 -260.5t-51.5 -260.5t-139 -212t-208.5 -141t-254 -52.5q-178 0 -328.5 88.5t-238 242t-87.5 335.5zM213 721q0 -153 72.5 -281t197.5 -202t273 -74t273.5 74 t198 202t72.5 281q0 154 -73 282t-198 201.5t-273 73.5t-273 -73.5t-197.5 -201.5t-72.5 -282zM473 657v148q0 293 275 293q114 0 202 -37l-26 -92q-88 30 -166 30q-178 0 -178 -198v-135q0 -199 176 -199q83 0 174 31l26 -95q-83 -36 -200 -36q-283 0 -283 290z" />
<glyph unicode="&#xaa;" horiz-adv-x="700" d="M70 899q0 54 14 92t36.5 59t59.5 33t72.5 15.5t87.5 3.5q94 0 162 -10v63q0 73 -41.5 105t-106.5 32q-111 0 -209 -39l-26 93q116 40 241 40q246 0 246 -243v-346l25 -95h-107l-16 43q-46 -31 -113 -46t-121 -15q-204 0 -204 215zM172 897q0 -50 26 -82.5t101 -32.5 q43 0 103.5 11.5t99.5 29.5v181q-79 14 -166 14q-83 0 -123.5 -25t-40.5 -96z" />
<glyph unicode="&#xab;" horiz-adv-x="1286" d="M57 434v92l514 432v-188l-352 -281l352 -282v-189zM627 434v92l514 432v-188l-353 -281l353 -282v-189z" />
<glyph unicode="&#xac;" d="M131 571v129h866v-507h-139v378h-727z" />
<glyph unicode="&#xad;" horiz-adv-x="858" d="M150 530v129h559v-129h-559z" />
<glyph unicode="&#xae;" horiz-adv-x="1071" d="M80 922q0 193 133 327.5t324 134.5q189 0 321.5 -134.5t132.5 -327.5t-132.5 -328t-321.5 -135q-191 0 -324 135t-133 328zM156 922q0 -163 110.5 -276.5t270.5 -113.5q158 0 268 113.5t110 276.5q0 164 -109.5 276.5t-268.5 112.5q-160 0 -270.5 -112.5t-110.5 -276.5z M369 686v488h202q80 0 119 -41.5t39 -106.5q0 -53 -27.5 -91.5t-83.5 -49.5l125 -199h-79l-119 191h-109v-191h-67zM436 944h135q46 0 68.5 23t22.5 57q0 35 -22 57.5t-69 22.5h-135v-160z" />
<glyph unicode="&#xaf;" horiz-adv-x="911" d="M147 1260v118h619v-118h-619z" />
<glyph unicode="&#xb0;" horiz-adv-x="743" d="M78 1124q0 136 86 216.5t207 80.5q122 0 207.5 -80t85.5 -217q0 -136 -85.5 -219.5t-207.5 -83.5q-121 0 -207 83.5t-86 219.5zM193 1124q0 -82 51 -133t127 -51q78 0 129 51t51 133t-51.5 132.5t-128.5 50.5q-75 0 -126.5 -51t-51.5 -132z" />
<glyph unicode="&#xb1;" d="M131 0v129h866v-129h-866zM131 651v129h365v379h139v-379h362v-129h-362v-379h-139v379h-365z" />
<glyph unicode="&#xb4;" horiz-adv-x="495" d="M74 1202l235 287h178l-270 -287h-143z" />
<glyph unicode="&#xb5;" horiz-adv-x="1280" d="M156 -369v1399h139v-639q0 -145 66.5 -222t183.5 -77q175 -3 348 127v17v794h141v-788q0 -88 21 -125t67 -37q28 0 80 20l19 -110q-79 -29 -142 -29q-66 0 -107 29.5t-61 97.5q-203 -127 -397 -127q-154 0 -246 86l29 -416h-141z" />
<glyph unicode="&#xb6;" horiz-adv-x="1114" d="M92 911v260q0 120 78.5 191.5t189.5 71.5h621v-97h-109v-1603h-100v1603h-207v-1603h-100v911h-115q-107 0 -182.5 74.5t-75.5 191.5z" />
<glyph unicode="&#xb7;" horiz-adv-x="462" d="M158 559v283h145v-283h-145z" />
<glyph unicode="&#xb8;" horiz-adv-x="626" d="M152 -506l4 113q126 -21 191 0t65 69q0 47 -52 66.5t-167 15.5v267h120v-168q97 -3 156 -48.5t59 -132.5q0 -234 -376 -182z" />
<glyph unicode="&#xba;" horiz-adv-x="735" d="M82 918v235q0 105 83 169t200 64t199.5 -64t82.5 -169v-235q0 -105 -82.5 -169.5t-199.5 -64.5t-200 64.5t-83 169.5zM186 928q0 -67 52 -105.5t127 -38.5t126.5 38.5t51.5 105.5v217q0 66 -51.5 103.5t-126.5 37.5t-127 -37.5t-52 -103.5v-217z" />
<glyph unicode="&#xbb;" horiz-adv-x="1286" d="M166 18v189l352 282l-352 281v188l516 -432v-92zM735 18v189l352 282l-352 281v188l516 -432v-92z" />
<glyph unicode="&#xbc;" horiz-adv-x="1857" d="M135 1303l299 49h70v-785h-113v666l-237 -39zM557 0l635 1434h113l-635 -1434h-113zM1212 141v74l242 590l96 -47l-209 -514h256v237h113v-237h123v-103h-123v-141h-113v141h-385z" />
<glyph unicode="&#xbd;" horiz-adv-x="1859" d="M135 1303l299 49h70v-785h-113v666l-237 -39zM557 0l635 1434h113l-635 -1434h-113zM1260 0v92q0 126 54 196.5t191 135.5q85 39 109 59q43 35 43 95q0 56 -40.5 89t-113.5 33q-110 0 -207 -43l-28 101q49 22 118.5 35.5t126.5 13.5q124 0 190 -62.5t66 -173.5 q0 -43 -10.5 -76.5t-26 -56t-48 -45.5t-60 -37.5t-78.5 -38.5q-51 -23 -76 -37t-50 -37t-34.5 -53.5t-9.5 -74.5l-2 -11h393v-104h-507z" />
<glyph unicode="&#xbe;" horiz-adv-x="1857" d="M59 580l17 100q141 -32 229 -29q86 0 130 29t44 108q0 59 -29.5 96.5t-93.5 37.5h-231v102h235q53 0 80 34.5t27 88.5q0 123 -182 123q-85 3 -197 -31l-16 102q148 33 217 33q140 0 214.5 -48.5t74.5 -170.5q0 -125 -76 -178q90 -57 90 -191q0 -74 -22 -123.5t-65 -74 t-90 -34t-112 -9.5q-103 0 -244 35zM557 0l635 1434h113l-635 -1434h-113zM1212 141v74l242 590l96 -47l-209 -514h256v237h113v-237h123v-103h-123v-141h-113v141h-385z" />
<glyph unicode="&#xbf;" horiz-adv-x="948" d="M72 -76q0 96 51.5 174.5t136.5 120.5l152 74q137 70 137 194v172h139v-172q0 -104 -56.5 -188t-152.5 -131l-153 -74q-53 -25 -84 -71.5t-31 -104.5v-33q0 -104 78 -153t233 -49q162 0 369 38l12 -131q-198 -39 -383 -39q-215 0 -331 82.5t-117 253.5v37zM545 813v211 h147v-211h-147z" />
<glyph unicode="&#xc0;" horiz-adv-x="1280" d="M66 0l532 1352h127l485 -1352h-143l-109 303h-630l-115 -303h-147zM379 1815h178l250 -285h-148zM385 449h520l-246 700z" />
<glyph unicode="&#xc1;" horiz-adv-x="1280" d="M66 0l532 1352h127l485 -1352h-143l-109 303h-630l-115 -303h-147zM385 449h520l-246 700zM522 1530l250 285h178l-280 -285h-148z" />
<glyph unicode="&#xc2;" horiz-adv-x="1280" d="M66 0l532 1352h127l485 -1352h-143l-109 303h-630l-115 -303h-147zM354 1530l232 252h149l234 -252h-135l-172 151l-173 -151h-135zM385 449h520l-246 700z" />
<glyph unicode="&#xc3;" horiz-adv-x="1280" d="M66 0l532 1352h127l485 -1352h-143l-109 303h-630l-115 -303h-147zM338 1587q33 96 78 147.5t110 51.5q48 0 97 -29t89 -57.5t68 -28.5q31 0 56.5 33t35.5 72l101 -31q-20 -78 -71.5 -137.5t-115.5 -59.5q-39 0 -77 18t-62.5 39.5t-55 39.5t-56.5 18q-57 0 -99 -111z M385 449h520l-246 700z" />
<glyph unicode="&#xc4;" horiz-adv-x="1280" d="M66 0l532 1352h127l485 -1352h-143l-109 303h-630l-115 -303h-147zM385 449h520l-246 700zM442 1552v164h144v-164h-144zM739 1552v164h142v-164h-142z" />
<glyph unicode="&#xc5;" horiz-adv-x="1280" d="M66 0l507 1290q-62 25 -99.5 81.5t-37.5 127.5q0 96 65.5 164t160.5 68q96 0 162.5 -68t66.5 -164q0 -72 -39 -129t-104 -82l462 -1288h-143l-109 303h-630l-115 -303h-147zM385 449h520l-246 700zM541 1499q0 -52 35.5 -85.5t85.5 -33.5q52 0 87 34t35 87q0 52 -35 85.5 t-85 33.5q-51 0 -87 -34t-36 -87z" />
<glyph unicode="&#xc6;" horiz-adv-x="1896" d="M66 0l733 1352h938v-146h-709v-444h643v-139h-643v-478h729v-145h-876v303h-496l-164 -303h-155zM465 449h416v765z" />
<glyph unicode="&#xc7;" horiz-adv-x="1146" d="M147 528v295q0 280 129 424t414 144q94 0 197 -18t176 -52l-41 -133q-64 29 -157 47t-177 18q-205 0 -299 -106.5t-94 -333.5v-274q0 -227 94.5 -334t298.5 -107q82 0 171.5 18t154.5 48l41 -133q-142 -63 -330 -70v-104q97 -3 156 -48.5t59 -132.5q0 -234 -377 -182 l4 113q126 -21 191 0t65 69q0 47 -52 66.5t-167 15.5v207q-239 21 -348 162.5t-109 400.5z" />
<glyph unicode="&#xc8;" horiz-adv-x="1177" d="M160 0v1352h856v-146h-709v-444h643v-139h-643v-478h729v-145h-876zM307 1815h178l250 -285h-147z" />
<glyph unicode="&#xc9;" horiz-adv-x="1177" d="M160 0v1352h856v-146h-709v-444h643v-139h-643v-478h729v-145h-876zM451 1530l249 285h179l-281 -285h-147z" />
<glyph unicode="&#xca;" horiz-adv-x="1177" d="M160 0v1352h856v-146h-709v-444h643v-139h-643v-478h729v-145h-876zM285 1530l231 252h150l233 -252h-135l-172 151l-172 -151h-135z" />
<glyph unicode="&#xcb;" horiz-adv-x="1177" d="M160 0v1352h856v-146h-709v-444h643v-139h-643v-478h729v-145h-876zM371 1552v164h143v-164h-143zM668 1552v164h141v-164h-141z" />
<glyph unicode="&#xcc;" horiz-adv-x="466" d="M-49 1815h178l250 -285h-148zM160 0v1352h147v-1352h-147z" />
<glyph unicode="&#xcd;" horiz-adv-x="466" d="M94 1530l250 285h178l-280 -285h-148zM160 0v1352h147v-1352h-147z" />
<glyph unicode="&#xce;" horiz-adv-x="466" d="M-74 1530l232 252h149l234 -252h-135l-173 151l-172 -151h-135zM160 0v1352h147v-1352h-147z" />
<glyph unicode="&#xcf;" horiz-adv-x="466" d="M14 1552v164h144v-164h-144zM160 0v1352h147v-1352h-147zM311 1552v164h142v-164h-142z" />
<glyph unicode="&#xd0;" horiz-adv-x="1331" d="M-16 625v147h176v580h493q105 0 201 -32.5t170 -92.5t118 -152t44 -203v-387q0 -147 -73.5 -259t-193 -169t-262.5 -57h-497v625h-176zM307 145h350q159 0 270 98.5t111 260.5v342q0 164 -111 262t-270 98h-350v-434h418v-147h-418v-480z" />
<glyph unicode="&#xd1;" horiz-adv-x="1337" d="M160 0v1352h98l772 -1041v1041h148v-1352h-97l-774 1040v-1040h-147zM330 1587q33 96 78 147.5t110 51.5q48 0 97 -29t89 -57.5t68 -28.5q31 0 56.5 33t35.5 72l101 -31q-20 -78 -71.5 -137.5t-115.5 -59.5q-39 0 -77 18t-63 39.5t-55.5 39.5t-56.5 18q-32 0 -55 -29 t-43 -82z" />
<glyph unicode="&#xd2;" horiz-adv-x="1359" d="M147 453v454q0 148 74.5 260t194 168t264.5 56q146 0 266 -56t194 -167.5t74 -260.5v-454q0 -149 -73.5 -262.5t-194 -171.5t-266.5 -58q-145 0 -265 58t-194 171.5t-74 262.5zM295 461q0 -110 54.5 -193t141 -124.5t189.5 -41.5q164 0 275.5 97t111.5 262v436 q0 164 -111.5 258t-275.5 94q-103 0 -189 -39.5t-141 -121.5t-55 -191v-436zM397 1815h178l250 -285h-147z" />
<glyph unicode="&#xd3;" horiz-adv-x="1359" d="M147 453v454q0 148 74.5 260t194 168t264.5 56q146 0 266 -56t194 -167.5t74 -260.5v-454q0 -149 -73.5 -262.5t-194 -171.5t-266.5 -58q-145 0 -265 58t-194 171.5t-74 262.5zM295 461q0 -110 54.5 -193t141 -124.5t189.5 -41.5q164 0 275.5 97t111.5 262v436 q0 164 -111.5 258t-275.5 94q-103 0 -189 -39.5t-141 -121.5t-55 -191v-436zM541 1530l250 285h178l-281 -285h-147z" />
<glyph unicode="&#xd4;" horiz-adv-x="1359" d="M147 453v454q0 148 74.5 260t194 168t264.5 56q146 0 266 -56t194 -167.5t74 -260.5v-454q0 -149 -73.5 -262.5t-194 -171.5t-266.5 -58q-145 0 -265 58t-194 171.5t-74 262.5zM295 461q0 -110 54.5 -193t141 -124.5t189.5 -41.5q164 0 275.5 97t111.5 262v436 q0 164 -111.5 258t-275.5 94q-103 0 -189 -39.5t-141 -121.5t-55 -191v-436zM373 1530l231 252h150l233 -252h-135l-172 151l-172 -151h-135z" />
<glyph unicode="&#xd5;" horiz-adv-x="1359" d="M147 453v454q0 148 74.5 260t194 168t264.5 56q146 0 266 -56t194 -167.5t74 -260.5v-454q0 -149 -73.5 -262.5t-194 -171.5t-266.5 -58q-145 0 -265 58t-194 171.5t-74 262.5zM295 461q0 -110 54.5 -193t141 -124.5t189.5 -41.5q164 0 275.5 97t111.5 262v436 q0 164 -111.5 258t-275.5 94q-103 0 -189 -39.5t-141 -121.5t-55 -191v-436zM356 1587q33 96 78.5 147.5t110.5 51.5q48 0 97 -29t89 -57.5t68 -28.5q31 0 56.5 33t35.5 72l100 -31q-20 -79 -71.5 -138t-114.5 -59q-39 0 -77 18t-63 39.5t-55.5 39.5t-56.5 18q-32 0 -55 -29 t-43 -82z" />
<glyph unicode="&#xd6;" horiz-adv-x="1359" d="M147 453v454q0 148 74.5 260t194 168t264.5 56q146 0 266 -56t194 -167.5t74 -260.5v-454q0 -149 -73.5 -262.5t-194 -171.5t-266.5 -58q-145 0 -265 58t-194 171.5t-74 262.5zM295 461q0 -110 54.5 -193t141 -124.5t189.5 -41.5q164 0 275.5 97t111.5 262v436 q0 164 -111.5 258t-275.5 94q-103 0 -189 -39.5t-141 -121.5t-55 -191v-436zM461 1552v164h143v-164h-143zM758 1552v164h141v-164h-141z" />
<glyph unicode="&#xd7;" horiz-adv-x="1007" d="M137 358l277 277l-277 278l86 97l281 -283l280 281l86 -95l-276 -276l278 -279l-88 -94l-280 281l-281 -281z" />
<glyph unicode="&#xd8;" horiz-adv-x="1359" d="M147 453v454q0 148 74.5 260t194 168t264.5 56q135 0 242 -45l90 202h118l-114 -254q94 -63 146 -161.5t52 -225.5v-454q0 -149 -73.5 -262.5t-194 -171.5t-266.5 -58q-130 0 -242 47l-92 -207h-117l117 258q-93 65 -146 166t-53 228zM295 461q0 -164 113 -262l454 1015 q-84 35 -182 35q-103 0 -189 -39.5t-141 -121.5t-55 -191v-436zM498 141q86 -39 182 -39q164 0 275.5 97t111.5 262v436q0 165 -113 260z" />
<glyph unicode="&#xd9;" horiz-adv-x="1325" d="M143 485v867h148v-867q0 -183 94.5 -283t276.5 -100q183 0 277.5 100t94.5 283v867h148v-867q0 -248 -132.5 -383t-387.5 -135q-254 0 -386.5 135.5t-132.5 382.5zM379 1815h178l250 -285h-148z" />
<glyph unicode="&#xda;" horiz-adv-x="1325" d="M143 485v867h148v-867q0 -183 94.5 -283t276.5 -100q183 0 277.5 100t94.5 283v867h148v-867q0 -248 -132.5 -383t-387.5 -135q-254 0 -386.5 135.5t-132.5 382.5zM520 1530l250 285h178l-280 -285h-148z" />
<glyph unicode="&#xdb;" horiz-adv-x="1325" d="M143 485v867h148v-867q0 -183 94.5 -283t276.5 -100q183 0 277.5 100t94.5 283v867h148v-867q0 -248 -132.5 -383t-387.5 -135q-254 0 -386.5 135.5t-132.5 382.5zM354 1530l232 252h149l234 -252h-135l-172 151l-173 -151h-135z" />
<glyph unicode="&#xdc;" horiz-adv-x="1325" d="M143 485v867h148v-867q0 -183 94.5 -283t276.5 -100q183 0 277.5 100t94.5 283v867h148v-867q0 -248 -132.5 -383t-387.5 -135q-254 0 -386.5 135.5t-132.5 382.5zM442 1552v164h144v-164h-144zM739 1552v164h142v-164h-142z" />
<glyph unicode="&#xdd;" horiz-adv-x="1103" d="M45 1352h158l348 -676l348 676h160l-434 -834v-518h-146v516zM412 1530l250 285h178l-281 -285h-147z" />
<glyph unicode="&#xde;" horiz-adv-x="1138" d="M160 0v1352h147v-211h342q109 0 192.5 -33t134 -90.5t76 -132t25.5 -162.5q0 -91 -25.5 -166.5t-76 -134.5t-134 -92t-192.5 -33h-342v-297h-147zM307 444h342q141 0 211 78.5t70 200.5q0 55 -16.5 103t-49 86.5t-88 60.5t-127.5 22h-342v-551z" />
<glyph unicode="&#xdf;" horiz-adv-x="1245" d="M156 0v1010q0 84 24 150.5t65 109.5t100 71t125 40t144 12q98 0 178 -20t144.5 -62.5t100.5 -117.5t36 -177q0 -107 -35.5 -181t-103.5 -108q91 -35 141.5 -117t50.5 -190v-49q0 -97 -34 -170t-94 -116t-136.5 -64t-167.5 -21h-241v129h225q90 0 157 23.5t109.5 79 t42.5 139.5v47q0 112 -78 175.5t-211 63.5v119q112 0 174 54.5t62 181.5q0 132 -87.5 192t-232.5 60q-319 0 -319 -254v-1010h-139z" />
<glyph unicode="&#xe0;" horiz-adv-x="1079" d="M78 279q0 178 97 253.5t314 75.5q117 0 304 -24v106q0 132 -71.5 187t-203.5 55q-68 0 -163.5 -16.5t-168.5 -47.5l-28 129q91 33 192 49.5t174 16.5q93 0 164 -18.5t127.5 -60t86.5 -115.5t30 -179v-547l37 -143h-129l-23 66q-80 -48 -189.5 -76.5t-205.5 -28.5 q-167 0 -255.5 80.5t-88.5 237.5zM217 276q0 -192 227 -192q85 0 179.5 22.5t169.5 61.5v297q-197 27 -277 27q-167 0 -233 -49t-66 -167zM260 1489h176l238 -287h-144z" />
<glyph unicode="&#xe1;" horiz-adv-x="1079" d="M78 279q0 178 97 253.5t314 75.5q117 0 304 -24v106q0 132 -71.5 187t-203.5 55q-68 0 -163.5 -16.5t-168.5 -47.5l-28 129q91 33 192 49.5t174 16.5q93 0 164 -18.5t127.5 -60t86.5 -115.5t30 -179v-547l37 -143h-129l-23 66q-80 -48 -189.5 -76.5t-205.5 -28.5 q-167 0 -255.5 80.5t-88.5 237.5zM217 276q0 -192 227 -192q85 0 179.5 22.5t169.5 61.5v297q-197 27 -277 27q-167 0 -233 -49t-66 -167zM387 1202l236 287h178l-271 -287h-143z" />
<glyph unicode="&#xe2;" horiz-adv-x="1079" d="M78 279q0 178 97 253.5t314 75.5q117 0 304 -24v106q0 132 -71.5 187t-203.5 55q-68 0 -163.5 -16.5t-168.5 -47.5l-28 129q91 33 192 49.5t174 16.5q93 0 164 -18.5t127.5 -60t86.5 -115.5t30 -179v-547l37 -143h-129l-23 66q-80 -48 -189.5 -76.5t-205.5 -28.5 q-167 0 -255.5 80.5t-88.5 237.5zM217 276q0 -192 227 -192q85 0 179.5 22.5t169.5 61.5v297q-197 27 -277 27q-167 0 -233 -49t-66 -167zM246 1202l215 275h135l217 -275h-123l-162 170l-159 -170h-123z" />
<glyph unicode="&#xe3;" horiz-adv-x="1079" d="M78 279q0 178 97 253.5t314 75.5q117 0 304 -24v106q0 132 -71.5 187t-203.5 55q-68 0 -163.5 -16.5t-168.5 -47.5l-28 129q91 33 192 49.5t174 16.5q93 0 164 -18.5t127.5 -60t86.5 -115.5t30 -179v-547l37 -143h-129l-23 66q-80 -48 -189.5 -76.5t-205.5 -28.5 q-167 0 -255.5 80.5t-88.5 237.5zM197 1276q33 96 78 147.5t112 51.5q37 0 76 -18t65.5 -39.5t57.5 -39.5t55 -18q30 0 55 32t37 72l98 -30q-21 -79 -71 -138t-115 -59q-38 0 -75.5 18t-63 39.5t-56.5 39.5t-57 18q-60 0 -96 -111zM217 276q0 -192 227 -192q85 0 179.5 22.5 t169.5 61.5v297q-197 27 -277 27q-167 0 -233 -49t-66 -167z" />
<glyph unicode="&#xe4;" horiz-adv-x="1079" d="M78 279q0 178 97 253.5t314 75.5q117 0 304 -24v106q0 132 -71.5 187t-203.5 55q-68 0 -163.5 -16.5t-168.5 -47.5l-28 129q91 33 192 49.5t174 16.5q93 0 164 -18.5t127.5 -60t86.5 -115.5t30 -179v-547l37 -143h-129l-23 66q-80 -48 -189.5 -76.5t-205.5 -28.5 q-167 0 -255.5 80.5t-88.5 237.5zM217 276q0 -192 227 -192q85 0 179.5 22.5t169.5 61.5v297q-197 27 -277 27q-167 0 -233 -49t-66 -167zM309 1262v165h144v-165h-144zM606 1262v165h142v-165h-142z" />
<glyph unicode="&#xe5;" horiz-adv-x="1079" d="M78 279q0 178 97 253.5t314 75.5q117 0 304 -24v106q0 132 -71.5 187t-203.5 55q-68 0 -163.5 -16.5t-168.5 -47.5l-28 129q91 33 192 49.5t174 16.5q93 0 164 -18.5t127.5 -60t86.5 -115.5t30 -179v-547l37 -143h-129l-23 66q-80 -48 -189.5 -76.5t-205.5 -28.5 q-167 0 -255.5 80.5t-88.5 237.5zM217 276q0 -192 227 -192q85 0 179.5 22.5t169.5 61.5v297q-197 27 -277 27q-167 0 -233 -49t-66 -167zM366.5 1400q-0.5 68 45.5 120q46 53 113 60t114 -36q49 -42 49.5 -109.5t-45.5 -119.5q-46 -54 -112 -61t-115 36q-49 42 -49.5 110z M442 1456q-13 -35 1 -67.5t51 -51.5q35 -20 71.5 -6.5t48.5 47.5q13 33 -1 67t-50 54q-37 18 -73 4.5t-48 -47.5z" />
<glyph unicode="&#xe6;" horiz-adv-x="1802" d="M78 287q0 68 20.5 117t55 79t88.5 48t112 24t135 6q175 0 310 -22v151q0 132 -71.5 187t-201.5 55q-74 0 -166 -16.5t-165 -47.5l-31 129q184 66 375 66q274 0 348 -182q57 87 149 134.5t213 47.5q211 0 321.5 -130t110.5 -351v-162h-741q6 -326 344 -326 q73 0 167.5 14.5t170.5 47.5l23 -129q-157 -66 -383 -66q-263 0 -379 162q-243 -162 -453 -162q-352 0 -352 326zM213 276q0 -40 9 -71t32.5 -60t70 -45t113.5 -16q185 0 396 137q-31 88 -31 197q-180 24 -293 24q-148 0 -222.5 -36t-74.5 -130zM940 551h608v39 q0 152 -75 247t-224 95q-105 0 -176.5 -50t-102 -125.5t-30.5 -170.5v-35z" />
<glyph unicode="&#xe7;" horiz-adv-x="1003" d="M125 453v127q0 135 32 230t94.5 149.5t143.5 79t189 24.5q80 0 174 -14.5t147 -36.5l-22 -127q-54 16 -134.5 29.5t-142.5 13.5q-84 0 -144.5 -17.5t-106.5 -58.5t-68.5 -113t-22.5 -176v-102q0 -197 86 -281t256 -84q65 0 146 12.5t131 30.5l22 -127q-115 -47 -309 -51 v-104q97 -3 156 -48.5t59 -132.5q0 -234 -377 -182l4 113q126 -21 191 0t65 69q0 47 -52 66.5t-167 15.5v209q-172 26 -261 141.5t-89 344.5z" />
<glyph unicode="&#xe8;" d="M127 418v162q0 211 119.5 347t326.5 136q212 0 322.5 -130t110.5 -351v-162h-742q6 -326 344 -326q75 0 169 14.5t169 47.5l25 -129q-159 -66 -383 -66q-219 0 -340 115t-121 342zM264 551h610v39q0 152 -75 247t-226 95q-79 0 -139.5 -28.5t-97 -77.5t-54.5 -109.5 t-18 -130.5v-35zM309 1489h176l238 -287h-143z" />
<glyph unicode="&#xe9;" d="M127 418v162q0 211 119.5 347t326.5 136q212 0 322.5 -130t110.5 -351v-162h-742q6 -326 344 -326q75 0 169 14.5t169 47.5l25 -129q-159 -66 -383 -66q-219 0 -340 115t-121 342zM264 551h610v39q0 152 -75 247t-226 95q-79 0 -139.5 -28.5t-97 -77.5t-54.5 -109.5 t-18 -130.5v-35zM436 1202l236 287h178l-270 -287h-144z" />
<glyph unicode="&#xea;" d="M127 418v162q0 211 119.5 347t326.5 136q212 0 322.5 -130t110.5 -351v-162h-742q6 -326 344 -326q75 0 169 14.5t169 47.5l25 -129q-159 -66 -383 -66q-219 0 -340 115t-121 342zM264 551h610v39q0 152 -75 247t-226 95q-79 0 -139.5 -28.5t-97 -77.5t-54.5 -109.5 t-18 -130.5v-35zM295 1202l215 275h135l217 -275h-123l-161 170l-160 -170h-123z" />
<glyph unicode="&#xeb;" d="M127 418v162q0 211 119.5 347t326.5 136q212 0 322.5 -130t110.5 -351v-162h-742q6 -326 344 -326q75 0 169 14.5t169 47.5l25 -129q-159 -66 -383 -66q-219 0 -340 115t-121 342zM264 551h610v39q0 152 -75 247t-226 95q-79 0 -139.5 -28.5t-97 -77.5t-54.5 -109.5 t-18 -130.5v-35zM358 1262v165h144v-165h-144zM655 1262v165h142v-165h-142z" />
<glyph unicode="&#xec;" horiz-adv-x="452" d="M-45 1489h176l238 -287h-144zM156 0v1030h139v-1030h-139z" />
<glyph unicode="&#xed;" horiz-adv-x="452" d="M84 1202l235 287h179l-271 -287h-143zM156 0v1030h139v-1030h-139z" />
<glyph unicode="&#xee;" horiz-adv-x="452" d="M-57 1202l215 275h135l217 -275h-123l-162 170l-159 -170h-123zM156 0v1030h139v-1030h-139z" />
<glyph unicode="&#xef;" horiz-adv-x="452" d="M4 1262v165h143v-165h-143zM156 0v1030h139v-1030h-139zM301 1262v165h141v-165h-141z" />
<glyph unicode="&#xf0;" horiz-adv-x="1243" d="M123 360v312q0 94 34.5 167t94.5 117.5t138 67.5t169 23q151 0 363 -50q0 127 -60 215l-217 -122l-49 96l188 104q-89 58 -217 58q-137 0 -303 -66l-41 115q78 33 172.5 54.5t173.5 21.5q211 0 342 -113l199 110l49 -92l-176 -98q78 -116 78 -281v-612 q0 -191 -132 -308.5t-354 -117.5q-69 0 -131.5 12t-122 41t-102.5 73.5t-69.5 114.5t-26.5 158zM262 369q0 -64 18.5 -113.5t48.5 -80.5t72.5 -50.5t85 -27t91.5 -7.5q163 0 253.5 81.5t90.5 223.5v469q-218 54 -355 54q-133 0 -219 -68t-86 -188v-293z" />
<glyph unicode="&#xf1;" horiz-adv-x="1208" d="M129 1030h137l23 -80q213 113 430 113q350 0 350 -434v-629h-139v623q0 159 -63.5 234t-178.5 75q-202 0 -381 -109v-823h-139v887zM285 1276q33 96 78 147.5t112 51.5q37 0 76 -18t65.5 -39.5t57.5 -39.5t55 -18q30 0 55 32t37 72l99 -30q-21 -79 -71.5 -138t-115.5 -59 q-38 0 -75.5 18t-63 39.5t-56.5 39.5t-57 18q-60 0 -96 -111z" />
<glyph unicode="&#xf2;" horiz-adv-x="1153" d="M125 322v383q0 112 62.5 194.5t163.5 123t224 40.5q124 0 225.5 -40.5t164.5 -123t63 -194.5v-383q0 -110 -62.5 -193.5t-164.5 -125.5t-226 -42q-123 0 -224.5 42t-163.5 125.5t-62 193.5zM264 330q0 -111 88 -175.5t223 -64.5q136 0 225 64.5t89 175.5v366 q0 113 -89 175.5t-225 62.5t-223.5 -62.5t-87.5 -175.5v-366zM305 1489h176l238 -287h-144z" />
<glyph unicode="&#xf3;" horiz-adv-x="1153" d="M125 322v383q0 112 62.5 194.5t163.5 123t224 40.5q124 0 225.5 -40.5t164.5 -123t63 -194.5v-383q0 -110 -62.5 -193.5t-164.5 -125.5t-226 -42q-123 0 -224.5 42t-163.5 125.5t-62 193.5zM264 330q0 -111 88 -175.5t223 -64.5q136 0 225 64.5t89 175.5v366 q0 113 -89 175.5t-225 62.5t-223.5 -62.5t-87.5 -175.5v-366zM434 1202l236 287h178l-270 -287h-144z" />
<glyph unicode="&#xf4;" horiz-adv-x="1153" d="M125 322v383q0 112 62.5 194.5t163.5 123t224 40.5q124 0 225.5 -40.5t164.5 -123t63 -194.5v-383q0 -110 -62.5 -193.5t-164.5 -125.5t-226 -42q-123 0 -224.5 42t-163.5 125.5t-62 193.5zM264 330q0 -111 88 -175.5t223 -64.5q136 0 225 64.5t89 175.5v366 q0 113 -89 175.5t-225 62.5t-223.5 -62.5t-87.5 -175.5v-366zM291 1202l215 275h135l217 -275h-123l-162 170l-159 -170h-123z" />
<glyph unicode="&#xf5;" horiz-adv-x="1153" d="M125 322v383q0 112 62.5 194.5t163.5 123t224 40.5q124 0 225.5 -40.5t164.5 -123t63 -194.5v-383q0 -110 -62.5 -193.5t-164.5 -125.5t-226 -42q-123 0 -224.5 42t-163.5 125.5t-62 193.5zM242 1276q33 96 78 147.5t112 51.5q37 0 76 -18t65.5 -39.5t57.5 -39.5t55 -18 q30 0 55 32t37 72l99 -30q-21 -79 -71.5 -138t-115.5 -59q-38 0 -75.5 18t-63 39.5t-56.5 39.5t-57 18q-60 0 -96 -111zM264 330q0 -111 88 -175.5t223 -64.5q136 0 225 64.5t89 175.5v366q0 113 -89 175.5t-225 62.5t-223.5 -62.5t-87.5 -175.5v-366z" />
<glyph unicode="&#xf6;" horiz-adv-x="1153" d="M125 322v383q0 112 62.5 194.5t163.5 123t224 40.5q124 0 225.5 -40.5t164.5 -123t63 -194.5v-383q0 -110 -62.5 -193.5t-164.5 -125.5t-226 -42q-123 0 -224.5 42t-163.5 125.5t-62 193.5zM264 330q0 -111 88 -175.5t223 -64.5q136 0 225 64.5t89 175.5v366 q0 113 -89 175.5t-225 62.5t-223.5 -62.5t-87.5 -175.5v-366zM354 1262v165h144v-165h-144zM651 1262v165h142v-165h-142z" />
<glyph unicode="&#xf7;" d="M131 571v129h866v-129h-866zM496 170v213h139v-213h-139zM496 887v213h139v-213h-139z" />
<glyph unicode="&#xf8;" horiz-adv-x="1153" d="M125 322v383q0 112 62.5 194.5t163.5 123t224 40.5q99 0 191 -29l84 176h113l-103 -217q79 -46 123.5 -119t44.5 -169v-383q0 -110 -62.5 -193.5t-164.5 -125.5t-226 -42q-104 0 -192 31l-86 -180h-113l107 223q-78 47 -122 120.5t-44 166.5zM264 330q0 -104 84 -172 l361 757q-62 19 -134 19q-136 0 -223.5 -62.5t-87.5 -175.5v-366zM438 111q62 -21 137 -21q136 0 225 64.5t89 175.5v366q0 112 -88 174z" />
<glyph unicode="&#xf9;" horiz-adv-x="1165" d="M141 385v645h140v-639q0 -146 64 -222.5t181 -76.5q163 -3 334 115v823h139v-887l37 -143h-135l-24 80q-189 -119 -383 -119q-168 0 -260.5 106.5t-92.5 317.5zM293 1489h176l238 -287h-144z" />
<glyph unicode="&#xfa;" horiz-adv-x="1165" d="M141 385v645h140v-639q0 -146 64 -222.5t181 -76.5q163 -3 334 115v823h139v-887l37 -143h-135l-24 80q-189 -119 -383 -119q-168 0 -260.5 106.5t-92.5 317.5zM420 1202l235 287h179l-271 -287h-143z" />
<glyph unicode="&#xfb;" horiz-adv-x="1165" d="M141 385v645h140v-639q0 -146 64 -222.5t181 -76.5q163 -3 334 115v823h139v-887l37 -143h-135l-24 80q-189 -119 -383 -119q-168 0 -260.5 106.5t-92.5 317.5zM279 1202l215 275h135l217 -275h-123l-162 170l-160 -170h-122z" />
<glyph unicode="&#xfc;" horiz-adv-x="1165" d="M141 385v645h140v-639q0 -146 64 -222.5t181 -76.5q163 -3 334 115v823h139v-887l37 -143h-135l-24 80q-189 -119 -383 -119q-168 0 -260.5 106.5t-92.5 317.5zM342 1262v165h143v-165h-143zM639 1262v165h141v-165h-141z" />
<glyph unicode="&#xfd;" horiz-adv-x="1073" d="M49 1030h148l348 -799l329 799h150q-315 -743 -366 -858q-159 -355 -254 -473q-88 -108 -185 -109q-57 0 -121 21l23 123q25 -10 63 -10q33 0 62.5 15.5t54.5 39.5t54.5 70.5t53.5 92t60 119.5zM418 1202l235 287h178l-270 -287h-143z" />
<glyph unicode="&#xfe;" horiz-adv-x="1179" d="M156 -369v1803h139v-461q224 90 362 90q182 0 290 -112.5t108 -315.5v-250q0 -65 -11.5 -124t-39.5 -114.5t-70.5 -96t-109 -65t-150.5 -24.5q-183 0 -379 102v-432h-139zM295 205q70 -50 167 -78.5t181 -28.5q62 0 110 18.5t78 48.5t49.5 72t27 84.5t7.5 90.5v196 q0 151 -72.5 234.5t-203.5 83.5q-65 0 -161.5 -23t-182.5 -59v-639z" />
<glyph unicode="&#xff;" horiz-adv-x="1073" d="M49 1030h148l348 -799l329 799h150q-315 -743 -366 -858q-159 -355 -254 -473q-88 -108 -185 -109q-57 0 -121 21l23 123q25 -10 63 -10q33 0 62.5 15.5t54.5 39.5t54.5 70.5t53.5 92t60 119.5zM338 1262v165h143v-165h-143zM635 1262v165h141v-165h-141z" />
<glyph unicode="&#x152;" horiz-adv-x="2082" d="M145 453v452q0 150 74.5 262.5t194.5 168t266 55.5q111 0 210.5 -40.5t174.5 -113.5v115h856v-148h-709v-442h646v-137h-646v-478h730v-147h-877v119q-75 -75 -174.5 -116.5t-210.5 -41.5q-146 0 -266.5 57.5t-194.5 171t-74 263.5zM293 463q0 -164 113 -262.5t274 -98.5 q164 0 274.5 98t110.5 263v434q0 164 -110.5 258t-274.5 94q-104 0 -190.5 -39.5t-141.5 -121.5t-55 -191v-434z" />
<glyph unicode="&#x153;" horiz-adv-x="1894" d="M125 322v383q0 112 62.5 194.5t163.5 123t224 40.5q134 0 242 -47.5t164 -136.5q117 184 358 184q211 0 320.5 -130t109.5 -351v-162h-739q3 -328 344 -328q70 0 165.5 15t170.5 45l25 -125q-159 -66 -383 -66q-268 0 -381 172q-58 -82 -163 -127t-233 -45 q-123 0 -224.5 42t-163.5 125.5t-62 193.5zM264 330q0 -111 88 -175.5t223 -64.5q136 0 225 64.5t89 175.5v366q0 113 -89 175.5t-225 62.5t-223.5 -62.5t-87.5 -175.5v-366zM1030 535h608v55q0 154 -75 250t-224 96q-79 0 -140 -28.5t-97 -78.5t-54 -111t-18 -132v-51z" />
<glyph unicode="&#x178;" horiz-adv-x="1103" d="M45 1352h158l348 -676l348 676h160l-434 -834v-518h-146v516zM332 1552v164h143v-164h-143zM629 1552v164h141v-164h-141z" />
<glyph unicode="&#x2c6;" horiz-adv-x="651" d="M39 1202l215 275h135l217 -275h-123l-161 168l-160 -168h-123z" />
<glyph unicode="&#x2dc;" horiz-adv-x="870" d="M106 1276q33 96 78.5 147.5t112.5 51.5q37 0 76 -18t65.5 -39.5t57.5 -39.5t55 -18q30 0 55 32t37 72l98 -30q-21 -79 -71 -138t-115 -59q-38 0 -75.5 18t-63 39.5t-56.5 39.5t-57 18q-60 0 -96 -111z" />
<glyph unicode="&#x2000;" horiz-adv-x="907" />
<glyph unicode="&#x2001;" horiz-adv-x="1815" />
<glyph unicode="&#x2002;" horiz-adv-x="907" />
<glyph unicode="&#x2003;" horiz-adv-x="1815" />
<glyph unicode="&#x2004;" horiz-adv-x="605" />
<glyph unicode="&#x2005;" horiz-adv-x="453" />
<glyph unicode="&#x2006;" horiz-adv-x="302" />
<glyph unicode="&#x2007;" horiz-adv-x="302" />
<glyph unicode="&#x2008;" horiz-adv-x="226" />
<glyph unicode="&#x2009;" horiz-adv-x="363" />
<glyph unicode="&#x200a;" horiz-adv-x="100" />
<glyph unicode="&#x2010;" horiz-adv-x="858" d="M150 530v129h559v-129h-559z" />
<glyph unicode="&#x2011;" horiz-adv-x="858" d="M150 530v129h559v-129h-559z" />
<glyph unicode="&#x2012;" horiz-adv-x="858" d="M150 530v129h559v-129h-559z" />
<glyph unicode="&#x2013;" horiz-adv-x="1083" d="M150 475v129h784v-129h-784z" />
<glyph unicode="&#x2014;" horiz-adv-x="1390" d="M150 475v129h1091v-129h-1091z" />
<glyph unicode="&#x2018;" horiz-adv-x="360" d="M123 1196q-11 111 49 176.5t152 77.5l30 -113q-50 -7 -77 -42.5t-19 -104.5l23 -195h-134z" />
<glyph unicode="&#x2019;" horiz-adv-x="360" d="M39 1092q50 7 77 43t19 104l-22 195h133l24 -201q11 -110 -48 -175.5t-152 -76.5z" />
<glyph unicode="&#x201a;" horiz-adv-x="360" d="M39 -78q50 7 77 42.5t19 103.5l-22 194h133l24 -199q11 -111 -48 -176t-152 -77z" />
<glyph unicode="&#x201c;" horiz-adv-x="630" d="M123 1196q-11 111 49 176.5t152 77.5l30 -113q-50 -7 -77 -42.5t-19 -104.5l23 -195h-134zM393 1196q-11 111 49 176.5t152 77.5l31 -113q-50 -7 -77.5 -42.5t-19.5 -104.5l23 -195h-133z" />
<glyph unicode="&#x201d;" horiz-adv-x="628" d="M39 1092q50 7 77 43t19 104l-22 195h133l24 -201q11 -110 -48 -175.5t-152 -76.5zM307 1092q50 7 78 43t21 104l-23 195h133l23 -201q13 -109 -47 -174.5t-152 -77.5z" />
<glyph unicode="&#x201e;" horiz-adv-x="630" d="M39 -78q50 7 77 42.5t19 103.5l-22 194h133l24 -199q11 -111 -48 -176t-152 -77zM309 -78q50 7 77.5 42.5t19.5 103.5l-23 194h133l25 -199q11 -111 -48.5 -176t-152.5 -77z" />
<glyph unicode="&#x2022;" horiz-adv-x="626" d="M109 625q0 86 59.5 147.5t144.5 61.5q84 0 144.5 -61.5t60.5 -147.5t-61 -148.5t-144 -62.5q-84 0 -144 62t-60 149z" />
<glyph unicode="&#x2026;" horiz-adv-x="1173" d="M162 0v248h143v-248h-143zM514 0v248h143v-248h-143zM866 0v248h144v-248h-144z" />
<glyph unicode="&#x202f;" horiz-adv-x="363" />
<glyph unicode="&#x2039;" horiz-adv-x="716" d="M57 434v92l514 432v-188l-352 -281l352 -282v-189z" />
<glyph unicode="&#x203a;" horiz-adv-x="716" d="M145 18v189l353 282l-353 281v188l514 -432v-92z" />
<glyph unicode="&#x205f;" horiz-adv-x="453" />
<glyph unicode="&#x20ac;" horiz-adv-x="1189" d="M2 510v111h174v170h-174v110h176q18 242 148 366t393 124q94 0 197 -18t176 -52l-41 -133q-62 29 -156 47t-178 18q-183 0 -277.5 -86t-111.5 -266h565v-110h-569v-170h569v-111h-569q6 -212 101 -312t292 -100q83 0 172.5 18.5t154.5 47.5l41 -133q-73 -34 -173 -52 t-193 -18q-279 0 -408.5 139t-134.5 410h-174z" />
<glyph unicode="&#x2122;" horiz-adv-x="1716" d="M0 1241v111h645v-111h-262v-616h-119v616h-264zM760 625l28 727h95l245 -473l246 473h94l29 -727h-108l-21 491l-205 -391h-71l-201 387l-23 -487h-108z" />
<glyph unicode="&#x25fc;" horiz-adv-x="1034" d="M0 0v1034h1034v-1034h-1034z" />
<glyph unicode="&#xfb01;" horiz-adv-x="1161" d="M66 901v129h135v19q0 231 76.5 327.5t248.5 96.5q94 0 181 -25l-23 -123q-85 16 -137 16q-114 0 -160.5 -60.5t-46.5 -225.5v-25h666v-1030h-140v901h-526v-901h-139v901h-135zM866 1214v207h140v-207h-140z" />
<glyph unicode="&#xfb02;" horiz-adv-x="1161" d="M66 901v129h135v19q0 231 76.5 327.5t248.5 96.5q94 0 181 -25l-23 -123q-85 16 -137 16q-114 0 -160.5 -60.5t-46.5 -225.5v-25h309v-129h-309v-901h-139v901h-135zM866 0v1434h140v-1434h-140z" />
<glyph unicode="&#xfb03;" horiz-adv-x="1871" d="M66 901v129h135v19q0 231 76.5 327.5t248.5 96.5q94 0 181 -25l-23 -123q-85 16 -137 16q-114 0 -160.5 -60.5t-46.5 -225.5v-25h569v19q0 231 77.5 327.5t250.5 96.5q94 0 178 -25l-22 -123q-85 16 -138 16q-112 0 -159 -61t-47 -225v-25h665v-1030h-139v901h-526v-901 h-140v901h-569v-901h-139v901h-135zM1575 1214v207h139v-207h-139z" />
<glyph unicode="&#xfb04;" horiz-adv-x="1871" d="M66 901v129h135v19q0 231 76.5 327.5t248.5 96.5q94 0 181 -25l-23 -123q-85 16 -137 16q-114 0 -160.5 -60.5t-46.5 -225.5v-25h569v19q0 231 77.5 327.5t250.5 96.5q94 0 178 -25l-22 -123q-85 16 -138 16q-112 0 -159 -61t-47 -225v-25h311v-129h-311v-901h-140v901 h-569v-901h-139v901h-135zM1575 0v1434h139v-1434h-139z" />
</font>
</defs>
</svg>
